<svg width="126" height="24" viewBox="0 0 126 24" fill="none" xmlns="http://www.w3.org/2000/svg">
  <g clip-path="url(#clip0_7181_3319)">
    <path
      d="M5.75462 18.4498C7.8464 18.4498 9.14383 17.5846 9.88522 16.7957L9.541 16.2613C8.87905 16.5667 7.89935 16.8211 6.76079 16.8211C3.98058 16.8211 2.31246 15.2688 2.31246 12.0623C2.31246 9.00852 3.60989 8.37231 5.75462 8.37231H9.56748V6.54004H7.02557C5.25154 6.54004 3.63637 7.0999 2.41837 8.21963C1.22685 9.33935 0.458984 11.0444 0.458984 13.0802C0.458984 16.3376 2.49781 18.4498 5.75462 18.4498Z"
      fill="black" />
    <path
      d="M12.0039 18.1955H13.9633V8.8051C14.5193 8.34703 15.6049 7.83807 17.0083 7.83807C18.7558 7.83807 19.9209 8.65241 19.9209 10.4592V18.1955H21.8803V9.84848C21.8803 7.76172 20.5828 6.28572 18.3322 6.28572C16.4258 6.28572 14.9959 7.17641 13.9633 8.09255V0L12.0039 0.305379V18.1955Z"
      fill="black" />
    <path
      d="M27.8647 16.9734C26.5938 16.9734 25.7994 16.2354 25.7994 15.0139C25.7994 14.0978 26.2496 13.5379 27.3352 13.0544C28.3678 12.5963 29.3475 12.2655 30.4067 12.011V16.0827C29.6917 16.6172 28.8974 16.9734 27.8647 16.9734ZM26.9645 18.3985C28.5267 18.3985 29.5858 17.5842 30.5126 16.6681L30.6185 18.3222L34.4313 17.3552V16.7953L32.366 16.5154V9.3135C32.366 7.25219 31.1216 6.28516 29.0033 6.28516C27.7588 6.28516 26.5938 6.59054 25.6406 7.1504C24.6874 7.71026 23.7871 8.70274 23.7871 9.97516H25.9318V7.76116C26.4349 7.63391 27.0439 7.55757 27.7853 7.55757C29.374 7.55757 30.4067 8.06654 30.4067 9.44074V11.0694C29.3475 11.3494 28.1825 11.6802 26.8586 12.2401C24.9522 13.0289 23.8665 13.9705 23.8665 15.4974C23.8665 17.2025 25.111 18.3985 26.9645 18.3985Z"
      fill="black" />
    <path
      d="M39.4083 18.4503C40.9175 18.4503 41.9502 17.7887 42.5327 17.1525L42.2149 16.618C41.7648 16.8471 41.1823 16.9998 40.4939 16.9998C38.9316 16.9998 38.1638 16.2618 38.1638 14.8367V7.73659H42.162V6.54052H38.1638V3.74121H37.7401L34.2715 7.35487V7.73659H36.2044V15.3202C36.2044 17.5596 37.7401 18.4503 39.4083 18.4503Z"
      fill="black" />
    <path
      d="M45.8152 16.7957C44.8885 16.7957 44.6767 15.5233 45.0739 13.9964C45.5505 12.1896 46.9538 9.77197 48.9397 8.11783H52.4877L52.2494 8.55045C50.9785 10.8917 47.5628 16.7957 45.8152 16.7957ZM45.0474 18.4498C47.298 18.4498 49.3368 15.0652 51.5345 11.1971H51.8523L49.8664 18.1953H51.561L54.5795 6.54004H49.6811C46.6625 8.14328 43.8823 11.706 43.1145 14.658C42.5849 16.7193 43.2998 18.4498 45.0474 18.4498Z"
      fill="black" />
    <path
      d="M53.5215 18.1959H55.2161L55.6927 16.9235C56.6989 14.226 60.2734 7.83848 62.0475 7.83848C62.8418 7.83848 62.9212 8.67827 62.6829 9.44172L60.0351 18.1959H61.8356L64.5629 9.21268C65.066 7.55855 64.3511 6.28613 62.9212 6.28613C60.6706 6.28613 58.6847 9.6453 56.6194 13.3862H56.3017L58.2346 6.54062H56.5665L53.5215 18.1959Z"
      fill="black" />
    <path
      d="M67.183 16.7959C66.1769 16.7959 65.7532 15.5489 66.1769 13.9457C66.627 12.1134 68.1363 9.74669 70.1751 8.118H74.1998L73.4584 9.39041C71.9491 12.037 68.9571 16.7959 67.183 16.7959ZM66.4152 18.45C68.8247 18.45 70.837 15.1926 73.4054 10.9173H73.7231L71.6314 18.1955H73.4848L78.092 0.432617L76.0532 0.737996L74.5704 6.5402H70.9959C67.7656 8.19434 64.9853 11.6553 64.244 14.531C63.7144 16.6432 64.5352 18.45 66.4152 18.45Z"
      fill="black" />
    <path
      d="M84.3952 17.1267L81.059 16.6177V8.8051C81.6945 8.29614 82.6212 7.83807 83.8657 7.83807C86.3017 7.83807 87.9168 9.51766 87.9168 12.4951C87.9168 15.0654 86.8048 16.8468 84.3952 17.1267ZM79.0996 18.1955H83.4685C87.3873 18.1955 89.7703 15.5489 89.7703 11.8334C89.7703 8.49972 87.8374 6.28572 85.0307 6.28572C83.4156 6.28572 82.0387 7.12552 81.059 8.0671V0L79.0996 0.305379V18.1955Z"
      fill="black" />
    <path
      d="M96.3631 18.4498C98.296 18.4498 99.7788 17.5082 100.785 16.5921L100.891 18.4498L104.704 17.4828V16.9229L102.638 16.643V6.54004H98.8785V7.25259L100.679 8.24507V15.9813C100.097 16.414 99.0109 16.8975 97.7135 16.8975C95.9395 16.8975 94.8009 16.2358 94.8009 14.4036V6.54004H91.041V7.25259L92.8415 8.24507V14.8871C92.8415 16.9738 94.1125 18.4498 96.3631 18.4498Z"
      fill="black" />
    <path
      d="M106.187 3.30867H108.464V1.12012H106.187V3.30867ZM106.345 18.1959H108.305V6.5406H104.545V7.25315L106.345 8.24563V18.1959Z"
      fill="black" />
    <path d="M110.582 18.1955H112.541V0L110.582 0.305379V18.1955Z" fill="black" />
    <path
      d="M120.565 16.9486C118.155 16.9486 116.54 15.1926 116.54 12.2152C116.54 9.6449 117.705 7.88897 119.929 7.55814L123.53 8.118V15.8543C122.842 16.465 121.836 16.9486 120.565 16.9486ZM119.453 18.45C121.227 18.45 122.471 17.6611 123.636 16.5159L123.742 18.45L125.49 18.0174V0L123.53 0.305379V6.48931H121.174C117.017 6.48931 114.66 9.08504 114.66 12.8259C114.66 16.1597 116.672 18.45 119.453 18.45Z"
      fill="black" />
  </g>
  <defs>
    <clipPath id="clip0_7181_3319">
      <rect width="125" height="24" fill="white" transform="translate(0.5)" />
    </clipPath>
  </defs>
</svg>
